<?xml version="1.0" standalone="no"?>
<!DOCTYPE svg PUBLIC "-//W3C//DTD SVG 1.1//EN" "http://www.w3.org/Graphics/SVG/1.1/DTD/svg11.dtd" >
<svg xmlns="http://www.w3.org/2000/svg">
<metadata>Generated by IcoMoon</metadata>
<defs>
<font id="Manehattan" horiz-adv-x="512">
<font-face units-per-em="512" ascent="480" descent="-32" />
<missing-glyph horiz-adv-x="512" />
<glyph unicode="&#x20;" d="" horiz-adv-x="256" />
<glyph unicode="&#x2302;" d="M186.182 96.776q-52.364 0-106.666 10.861-12.8 3.103-14.74 15.903l-15.515 109.769h-30.642q-10.861 0-16.679 10.085-5.043 10.472 1.551 19.006 17.843 25.6 41.891 51.976t44.412 44.994 41.503 35.685 30.642 23.854 13.769 9.891q10.472 7.369 20.946 0 24.824-16.291 64-50.037v40.728q0 5.43 3.491 8.921t8.921 3.491h37.236q5.43 0 8.921-3.491t3.491-8.921v-100.46q24.824-25.988 44.606-54.303 5.043-5.818 5.043-12.8 0-7.757-5.43-13.188t-13.188-5.43h-30.642l-15.903-109.769q-0.388-5.818-4.461-10.085t-9.891-5.818q-55.079-10.861-106.666-10.861zM234.279 158.060l3.103 49.649q0 5.43-3.491 9.309-3.879 3.879-8.921 3.879h-77.576q-5.042 0-8.921-3.879-3.491-3.879-3.491-9.309l3.103-49.649q0.776-10.085 10.861-11.637 20.558-1.94 37.237-1.94t37.237 1.94q10.085 1.551 10.861 11.637z" horiz-adv-x="373" />
<glyph unicode="&#x23f1;" d="M297.115 341.915q37.624-43.83 37.624-102.4 0-65.163-44.8-110.158t-109.964-44.994-109.963 44.994-44.8 110.157q0 56.631 34.715 98.909t89.018 53.139v27.928h-6.206q-7.757 0-13.188 5.43t-5.43 13.188 5.43 13.188 13.188 5.43h74.472q7.757 0 13.188-5.43t5.43-13.188-5.43-13.188-13.188-5.43h-6.206v-27.928q22.109-4.654 41.503-14.351l28.315 28.703q4.267 4.267 10.279 4.267t10.279-4.267l19.782-19.394q3.879-4.266 3.879-10.472t-3.879-10.085zM179.976 130.909q44.606 0 76.8 32.194t32.194 76.412-32.194 76.412-76.8 32.194-76.606-32.194-32-76.412 32-76.412 76.606-32.194zM179.976 196.072q-17.843 0-30.642 12.8t-12.8 30.642q0 7.757 3.103 15.903l-24.824 27.928q-4.266 4.654-3.879 10.861t5.043 10.472q4.266 3.879 10.085 3.879t10.085-3.879l28.315-24.824q7.369 3.103 15.515 3.103 17.843 0 30.642-12.8t12.8-30.642-12.8-30.642-30.642-12.8z" horiz-adv-x="373" />
<glyph unicode="&#x2421;" d="M243.588 270.546l73.309-73.697q5.043-4.654 5.818-11.055t-3.103-10.666q-16.679-21.334-38.012-38.012-4.267-3.879-10.666-3.103t-11.442 5.43l-73.309 73.697-73.697-73.697q-4.654-4.654-11.055-5.43t-11.055 3.103q-20.945 16.679-37.624 37.624-3.879 4.654-3.103 11.055t5.431 11.055l73.697 73.697-73.309 73.309q-5.043 5.043-5.818 11.442t3.103 10.667q16.291 20.945 37.624 38.012 4.654 3.879 11.055 3.103t11.055-5.818l73.697-70.206 73.309 70.206q5.043 5.043 11.442 5.818t10.666-3.103q21.334-16.679 38.012-38.012 3.879-4.267 3.103-10.667t-5.818-11.442z" horiz-adv-x="373" />
<glyph unicode="&#x2699;" d="M371.588 288.388q1.94-17.455 0-35.685-0.776-6.594-5.43-11.249t-10.861-5.43l-31.806-3.879q-6.982-1.552-11.637-7.176t-4.654-12.994q0-6.594 3.491-11.248 0-0.388 19.394-25.6 3.879-5.043 3.879-11.442t-4.267-11.442q-11.248-13.964-25.212-25.212-4.654-4.267-11.637-4.267t-11.248 3.879l-25.212 19.394q-4.655 3.491-11.637 3.491-7.369 0-12.994-4.849t-7.176-12.218l-3.879-31.031q-0.776-6.206-5.43-10.861t-11.249-5.43q-11.637-0.776-17.843-0.776t-17.843 0.776q-6.594 0.776-11.249 5.43t-5.43 10.861q-3.879 30.642-3.879 31.031-1.163 7.37-6.982 12.218t-13.188 4.849q-6.594 0-12.412-3.879l-24.436-19.006q-4.266-3.879-11.248-3.879-6.206 0-11.636 4.267-13.963 11.248-25.212 25.212-4.267 5.043-4.267 11.442t3.879 11.442l18.618 24.437q4.266 5.43 4.266 12.412 0 7.757-5.043 13.576t-12.8 6.594l-30.255 3.879q-6.206 0.776-10.861 5.43t-5.431 11.249q-1.94 17.455 0 35.685 0.388 6.206 5.043 11.054t11.248 5.624l30.255 3.879q7.758 1.163 12.8 6.982t5.043 13.576q0 6.594-4.267 12.024l-18.618 24.436q-4.267 5.043-4.072 11.442t4.461 11.442q11.248 13.964 25.212 25.212 5.043 4.267 11.442 4.267t11.442-3.879l24.436-19.006q5.818-3.879 12.412-3.879 7.37 0 13.188 4.849t6.982 12.218l3.879 31.030q0.776 6.206 5.43 10.861t11.249 5.43q17.454 1.94 35.685 0 6.594-0.776 11.249-5.43t5.43-10.861l3.879-31.030q1.552-7.37 7.176-12.218t12.994-4.849q5.43 0 11.637 3.491 16.679 12.8 25.212 19.394 5.043 3.879 11.442 3.879t11.442-4.267q13.964-11.248 25.212-25.212 4.267-5.042 4.267-11.442t-3.879-11.442q-19.394-25.212-19.394-25.6-3.491-4.655-3.491-10.861 0-7.369 4.654-12.994t11.637-7.564q21.334-2.715 31.806-3.879 6.206-0.776 10.861-5.431t5.43-11.248zM186.182 207.321q26.376 0 44.8 18.424t18.424 44.8-18.424 44.8-44.8 18.424-44.8-18.424-18.424-44.8 18.424-44.8 44.8-18.424z" horiz-adv-x="373" />
<glyph unicode="&#x2713;" d="M354.909 387.297q4.654-3.879 5.043-10.279t-3.491-11.831q-147.006-209.842-159.030-226.521-12.412-16.679-32-16.873t-32.388 16.873l-107.831 151.661q-3.879 5.43-3.491 12.024t5.043 10.473q19.782 17.066 44.218 30.642 5.043 2.715 11.248 0.776t10.085-7.37l72.921-102.4 124.509 176.873q3.879 5.43 9.891 7.176t11.442-0.969q25.6-13.964 43.831-30.255z" horiz-adv-x="373" />
<glyph unicode="&#xe1c1;" d="M251.345 360.534q-32.582 16.679-71.369 16.679t-71.37-16.679l-96.194 96.194h124.121l43.442-43.443 43.442 43.443h124.121zM179.976 84.363q-54.303 0-92.315 38.012t-38.012 92.315 38.012 92.315 92.315 38.012 92.315-38.012 38.012-92.315-38.012-92.315-92.315-38.012zM161.357 146.424h49.648v136.534h-37.237q-11.637-34.521-49.648-37.237v-24.824h37.236v-74.473z" horiz-adv-x="373" />
<glyph unicode="&#xe575;" d="M208.679 244.169q6.206-0.776 10.472-6.012t4.267-12.606v-122.57q0-7.757-4.849-13.188t-11.442-5.43h-54.303q-6.594 0-11.442 5.43t-4.849 13.188v122.57q0 7.369 4.267 12.8t10.472 5.818q12.412 1.552 28.703 1.552 15.903 0 28.703-1.552zM332.8 306.231q6.206-0.776 10.473-6.012t4.267-12.606v-184.631q0-7.757-4.849-13.188t-11.442-5.43h-54.303q-6.594 0-11.442 5.43t-4.849 13.188v184.63q0 7.37 4.267 12.8t10.473 5.818q12.412 1.552 28.703 1.552 15.903 0 28.703-1.552zM84.558 206.933q6.206-0.776 10.472-6.012t4.266-12.606v-85.334q0-7.757-4.849-13.188t-11.442-5.43h-54.303q-6.594 0-11.443 5.43t-4.848 13.188v85.334q0 7.37 4.266 12.8t10.473 5.818q12.412 1.551 28.703 1.551 15.903 0 28.703-1.551zM201.309 295.37q-7.757-5.818-17.261-4.849t-16.097 7.952l-44.606 48.873-37.237-38.012q0.776-4.654 0.776-7.757 0-17.843-12.8-30.643t-30.642-12.8-30.642 12.8-12.8 30.642 12.8 30.642 30.642 12.8q1.94 0 7.37-0.776l55.466 55.466q8.145 7.37 18.231 7.37 10.861-0.776 17.843-8.146l46.934-50.424 83.782 63.224v1.552q0 17.842 12.8 30.642t30.642 12.8 30.642-12.8 12.8-30.642-12.8-30.643-30.642-12.8q-7.37 0-13.188 2.327z" horiz-adv-x="373" />
<glyph unicode="&#xe579;" d="M351.418 418.715q8.921-1.552 14.933-8.34t6.012-16.097v-247.466q0-9.309-6.012-16.291t-14.933-8.534q-82.231-12.8-165.237-12.8-83.782 0-165.237 12.8-8.921 1.551-14.934 8.534t-6.012 16.291v247.466q0 9.309 6.012 16.097t14.934 8.34q80.291 13.188 165.237 13.188t165.237-13.188zM48.097 191.418q-3.103-6.206-1.551-12.8t7.37-10.473q6.594-4.267 13.77-2.909t11.442 7.563l50.036 72.921q46.157-49.26 47.321-50.036 11.637-9.309 20.946 0 0.388 0 11.054 12.8t27.345 32.388 28.703 32.776l27.539-25.212q2.715-2.715 6.594-2.715 1.163 0 2.715 0.776 5.43 1.552 6.206 6.982 3.879 19.394 4.461 43.249t-0.194 36.654-1.551 15.903q-0.776 7.37-8.146 8.146-3.879 1.94-40.728 1.94-31.030 0-55.079-4.654-5.43-1.163-7.369-6.594-1.163-5.042 2.327-9.309l27.54-29.479-43.831-46.546q-51.2 46.933-52.751 48.097-5.043 4.267-12.8 3.103t-10.472-6.594z" horiz-adv-x="373" />
<glyph unicode="&#xe9a1;" d="M19.782 357.43q-6.982 0-12.218 4.267t-6.012 10.472q-3.103 28.703 0 57.406 0.776 6.206 6.012 10.473t12.218 4.267h320q7.37 0 12.606-4.267t6.012-10.473q3.103-28.703 0-57.406-0.776-6.206-6.012-10.472t-12.606-4.267h-320zM339.782 220.897h-320q-6.982 0-12.218 4.267t-6.012 10.472q-3.103 28.703 0 57.406 0.776 6.206 6.012 10.472t12.218 4.267h320q7.37 0 12.606-4.267t6.012-10.472q3.103-28.703 0-57.406-0.776-6.206-6.012-10.472t-12.606-4.267zM339.782 84.363h-320q-6.982 0-12.218 4.267t-6.012 10.473q-3.103 28.703 0 57.406 0.776 6.206 6.012 10.473t12.218 4.267h320q7.37 0 12.606-4.267t6.012-10.473q3.103-28.703 0-57.406-0.776-6.206-6.012-10.473t-12.606-4.267z" horiz-adv-x="373" />
<glyph unicode="&#xe9a3;" d="M235.831 444.315h99.297q10.085 0 17.454-7.37t7.37-17.454v-99.297q0-10.085-7.37-17.454t-17.454-7.37h-99.297q-10.085 0-17.454 7.37t-7.369 17.454v99.297q0 10.085 7.369 17.455t17.454 7.369zM12.412 320.194v99.297q0 10.085 7.37 17.454t17.455 7.37h99.297q10.085 0 17.454-7.37t7.369-17.454v-99.297q0-10.085-7.369-17.454t-17.454-7.37h-99.297q-10.085 0-17.454 7.37t-7.37 17.454zM335.127 96.776h-99.297q-10.085 0-17.454 7.37t-7.369 17.454v99.297q0 10.085 7.369 17.454t17.454 7.369h99.297q10.085 0 17.454-7.369t7.37-17.454v-99.297q0-10.085-7.37-17.454t-17.454-7.37zM136.534 96.776h-99.297q-10.085 0-17.454 7.37t-7.37 17.454v99.297q0 10.085 7.37 17.454t17.454 7.369h99.297q10.085 0 17.454-7.369t7.369-17.454v-99.297q0-10.085-7.369-17.454t-17.454-7.37z" horiz-adv-x="373" />
<glyph unicode="&#xeb80;" d="M229.624 407.079h55.855v37.236q0 8.534 7.37 11.248 7.757 3.491 13.576-2.327 21.334-19.782 41.115-45.188t23.661-33.163q2.327-5.43 0-10.085-3.879-7.757-23.661-33.163t-41.115-45.576q-3.879-3.103-8.534-3.103-2.715 0-5.043 1.163-7.37 2.715-7.37 11.249v37.236h-55.855q-22.109 0-29.091-2.715t-19.394-17.454q-19.006-22.109-34.133-41.891 1.94-2.715 34.133-42.279 12.024-14.351 19.006-17.067t29.479-2.715h55.854v37.237q0 7.757 7.37 11.249 7.757 3.491 13.576-2.327 20.945-19.394 40.921-44.8t23.854-33.551q2.327-5.43 0-10.085-3.879-7.757-23.661-33.163t-41.115-45.576q-3.879-3.103-8.534-3.103-1.94 0-5.043 0.776-7.37 3.491-7.37 11.637v37.236h-55.855q-35.297 0-57.794 8.339t-47.709 37.818q-23.66 28.703-44.606 55.466l-55.467 6.982q-11.248 1.552-18.23 10.667t-5.818 20.752q1.163 9.697 7.952 16.485t16.097 7.952l55.466 6.982q20.945 26.763 44.606 55.466 25.212 29.479 47.709 37.818t57.794 8.339z" horiz-adv-x="373" />
<glyph unicode="&#xf072;" d="M345.212 405.915q6.594-1.552 10.666-6.594t4.072-11.637v-271.127q0-6.594-4.072-11.637t-10.666-6.594l-3.103-0.776q-2.715-0.388-7.37-1.163t-11.248-1.94-15.127-2.134-18.424-2.134-21.721-2.327-24.436-1.94-27.54-1.163-30.060-0.388-30.060 0.388-27.54 1.163-24.436 1.94-21.721 2.327-18.424 2.134-15.127 2.134-11.248 1.94-7.37 1.163l-3.103 0.776q-6.594 1.551-10.666 6.594t-4.072 11.637v271.127q0 6.594 4.072 11.637t10.666 6.594q0.388 0 4.46 0.776t12.606 2.133 17.843 2.521v-22.885q0-12.8 9.115-21.915t21.915-9.115q3.491 0 9.697 1.552-15.903 6.594-15.903 20.558v52.363q0 10.085 7.37 17.454t17.454 7.37 17.454-7.37 7.369-17.454v-13.576q23.273 1.163 49.648 1.163 16.679 0 24.824-0.388v-30.642q0-12.8 9.115-21.915t21.915-9.115q3.491 0 9.697 1.552-15.903 6.594-15.903 20.558v52.363q0 10.085 7.369 17.454t17.455 7.37 17.454-7.37 7.37-17.454v-17.454q37.236-3.879 59.733-8.534zM153.212 153.018q7.369-10.473 18.812-10.279t18.812 10.279l97.358 138.085q5.43 7.37-0.776 12.8-7.37 6.594-32.969 20.558-3.103 1.551-6.788 0.582t-5.624-4.072l-70.206-106.279-39.952 60.121q-5.43 7.37-12.8 3.491-14.74-8.534-27.927-20.17-6.206-5.43-0.776-13.188 55.854-82.618 62.837-91.927z" horiz-adv-x="373" />
<glyph unicode="&#xf073;" d="M345.212 405.915q6.594-1.552 10.666-6.594t4.072-11.637v-271.127q0-6.594-4.072-11.637t-10.666-6.594l-3.103-0.776q-2.715-0.388-7.37-1.163t-11.248-1.94-15.127-2.134-18.424-2.134-21.721-2.327-24.436-1.94-27.54-1.163-30.060-0.388-30.060 0.388-27.54 1.163-24.436 1.94-21.721 2.327-18.424 2.134-15.127 2.134-11.248 1.94-7.37 1.163l-3.103 0.776q-6.594 1.551-10.666 6.594t-4.072 11.637v271.127q0 6.594 4.072 11.637t10.666 6.594q0.388 0 4.46 0.776t12.606 2.133 17.843 2.521v-22.885q0-12.8 9.115-21.915t21.915-9.115q3.491 0 9.697 1.552-15.903 6.594-15.903 20.558v52.363q0 10.085 7.37 17.454t17.454 7.37 17.454-7.37 7.369-17.454v-13.576q23.273 1.163 49.648 1.163 16.679 0 24.824-0.388v-30.642q0-12.8 9.115-21.915t21.915-9.115q3.491 0 9.697 1.552-15.903 6.594-15.903 20.558v52.363q0 10.085 7.369 17.454t17.455 7.37 17.454-7.37 7.37-17.454v-17.454q37.236-3.879 59.733-8.534zM225.357 158.449q3.491-3.491 8.727-3.491t8.727 3.491l18.23 18.231q3.491 3.491 3.491 8.728t-3.491 8.728l-39.176 39.176 39.176 39.176q3.491 3.491 3.491 8.728t-3.491 8.727l-18.231 18.231q-3.491 3.491-8.727 3.491t-8.727-3.491l-39.176-39.176-39.176 39.176q-3.491 3.491-8.727 3.491t-8.727-3.491l-18.231-18.231q-3.491-3.491-3.491-8.727t3.491-8.728l39.176-39.176-39.176-39.176q-3.491-3.491-3.491-8.728t3.491-8.728l18.23-18.231q3.491-3.491 8.727-3.491t8.727 3.491l39.176 39.176z" horiz-adv-x="373" />
<glyph unicode="&#xf081;" d="M365.714 303.429q-16-7.143-34.572-9.714 19.428 11.428 26.572 33.428-18.572-10.857-38.286-14.572-17.428 18.857-43.714 18.857-24.857 0-42.428-17.572t-17.572-42.428q0-8.286 1.429-13.714-36.857 2-69.143 18.572t-54.857 44.286q-8.285-14.286-8.285-30.286 0-32.572 26-50-13.428 0.286-28.572 7.428v-0.571q0-21.429 14.285-38.143t35.143-20.714q-8.285-2.286-14.572-2.286-3.715 0-11.143 1.143 6-18 21.285-29.714t34.715-12q-33.143-25.714-74.572-25.714-7.428 0-14.285 0.857 42.285-26.857 92-26.857 32 0 60 10.143t48 27.143 34.428 39.143 21.428 46.286 7 48.143q0 5.143-0.286 7.714 18 12.857 30 31.143zM438.857 358.857v-274.286q0-34-24.143-58.143t-58.143-24.143h-274.286q-34 0-58.143 24.143t-24.143 58.143v274.286q0 34 24.143 58.143t58.143 24.143h274.286q34 0 58.143-24.143t24.143-58.143z" />
<glyph unicode="&#xf082;" d="M373.428 213.143l6.572 62.572h-56.572v31.143q0 14 4.428 19.572t20.428 5.572h31.428v62.572h-50q-43.428 0-62.286-20.572t-18.857-60.857v-37.428h-37.429v-62.572h37.428v-181.429h74.857v181.428h50zM438.857 356.572v-274.286q0-34-24.143-58.143t-58.143-24.143h-274.286q-34 0-58.143 24.143t-24.143 58.143v274.286q0 34 24.143 58.143t58.143 24.143h274.286q34 0 58.143-24.143t24.143-58.143z" />
<glyph unicode="&#xf083;" d="M265.143 237.714q0 4-2.572 6.572t-6.572 2.571q-18.857 0-32.286-13.428t-13.428-32.286q0-4 2.571-6.572t6.571-2.572 6.572 2.572 2.571 6.572q0 11.428 8 19.428t19.429 8q4 0 6.572 2.571t2.572 6.572zM329.143 200.572q0-30.286-21.428-51.714t-51.714-21.428-51.714 21.428-21.428 51.714 21.428 51.714 51.714 21.428 51.714-21.428 21.428-51.714zM36.572 36.572h438.857v36.572h-438.857v-36.572zM365.714 200.572q0 45.428-32.143 77.572t-77.572 32.143-77.572-32.143-32.143-77.572 32.143-77.572 77.572-32.143 77.572 32.143 32.143 77.572zM73.143 384h109.715v36.571h-109.715v-36.571zM36.572 329.143h438.857v73.143h-236.571l-18.285-36.572h-184v-36.571zM512 402.286v-365.714q0-15.143-10.714-25.857t-25.857-10.714h-438.857q-15.143 0-25.857 10.714t-10.714 25.857v365.714q0 15.143 10.714 25.857t25.857 10.714h438.857q15.143 0 25.857-10.714t10.714-25.857z" />
<glyph unicode="&#xf0d2;" d="M438.857 219.429q0-59.714-29.428-110.143t-79.857-79.857-110.143-29.428q-31.715 0-62.285 9.143 16.857 26.572 22.286 46.857 2.571 9.714 15.428 60.286 5.714-11.143 20.857-19.286t32.571-8.143q34.572 0 61.714 19.572t42 53.857 14.857 77.143q0 32.572-17 61.143t-49.286 46.572-72.857 18q-30 0-56-8.286t-44.143-22-31.143-31.572-19.143-37-6.143-38.286q0-29.714 11.428-52.286t33.428-31.714q8.572-3.428 10.857 5.714 0.572 2 2.286 8.857t2.286 8.572q1.714 6.572-3.143 12.286-14.572 17.428-14.572 43.143 0 43.143 29.857 74.143t78.143 31q43.143 0 67.285-23.428t24.143-60.857q0-48.571-19.572-82.571t-50.143-34q-17.429 0-28 12.428t-6.571 29.857q2.286 10 7.572 26.714t8.572 29.428 3.286 21.572q0 14.286-7.714 23.714t-22 9.428q-17.714 0-30-16.286t-12.286-40.572q0-20.857 7.143-34.857l-28.285-119.428q-4.857-20-3.714-50.572-58.857 26-95.143 80.286t-36.285 120.857q0 59.715 29.428 110.143t79.857 79.857 110.143 29.429 110.143-29.429 79.857-79.857 29.428-110.143z" />
<glyph unicode="&#xf0d5;" d="M250.286 56.857q0 6-1.286 11.572t-2.714 10.286-5 9.857-6 8.714-7.572 8.428-7.857 7.286-9.143 7.286-8.857 6.572-9.429 6.572-8.714 6q-4.857 0.572-14.286 0.572-15.428 0-30.286-2t-30.857-7.143-28-13.143-19.715-21.428-7.715-30.572q0-19.428 10.143-34.714t26.572-24 34.428-13 36.285-4.286q16.857 0 32.143 3.572t28.715 11.143 21.286 21 7.857 31.428zM216 303.143q0 17.143-4.714 36.428t-13.428 37.286-24 29.714-34.143 11.714q-26.572 0-41.143-19.714t-14.572-47.143q0-13.428 3.285-28.285t10.143-29.714 16-26.714 22.285-19.286 27.714-7.428q27.714 0 40.143 17.286t12.429 45.857zM178.571 438.857h124.857l-38.572-22.572h-38.572q20.286-12.857 31.428-36t11.143-48.285q0-21.143-6.572-37.572t-16-26.428-18.857-18.428-16-17.428-6.571-19.286q0-7.428 4.714-14.572t12.286-13.714 16.714-13.714 18.286-15.857 16.714-18.857 12.286-24.286 4.714-30.428q0-45.714-40-80.572-43.428-37.429-120-37.429-16.857 0-34.143 2.857t-34.857 9.572-31 16.572-22 25.428-8.572 34.714q0 17.428 10.572 38.572 9.143 18.286 27.428 31.572t41.428 20.286 44.285 10.286 42.857 3.857q-18.286 23.714-18.286 42.572 0 3.428 0.571 6.714t1.429 5.572 2.286 6.143 2 6.143q-11.428-1.428-20-1.428-42.572 0-73 28t-30.428 70.286q0 40 27.143 71.572t66.857 40.428q26.857 5.714 53.428 5.714zM475.428 365.714v-36.571h-73.143v-73.143h-36.572v73.143h-73.143v36.571h73.143v73.143h36.572v-73.143h73.143z" horiz-adv-x="476" />
<glyph unicode="&#xf113;" d="M182.857 128q0-11.428-3.571-23.428t-12.286-21.714-20.714-9.714-20.715 9.714-12.285 21.714-3.572 23.428 3.572 23.428 12.285 21.714 20.715 9.714 20.714-9.714 12.286-21.714 3.571-23.428zM365.714 128q0-11.428-3.572-23.428t-12.286-21.714-20.714-9.714-20.714 9.714-12.286 21.714-3.572 23.428 3.572 23.428 12.286 21.714 20.714 9.714 20.714-9.714 12.286-21.714 3.572-23.428zM411.428 128q0 34.286-19.714 58.286t-53.428 24q-11.714 0-55.714-6-20.286-3.143-44.857-3.143t-44.857 3.143q-43.428 6-55.714 6-33.715 0-53.428-24t-19.715-58.286q0-25.143 9.143-43.857t23.143-29.428 34.857-17.143 40-8.428 42.572-2h48q23.428 0 42.572 2t40 8.428 34.857 17.143 23.143 29.428 9.143 43.857zM475.428 178.286q0-59.143-17.428-94.572-10.857-22-30.143-38t-40.286-24.572-48.572-13.572-49-6.286-47.714-1.286q-22.286 0-40.572 0.857t-42.143 3.572-43.572 8.572-39.143 14.714-34.572 23.143-24.572 32.857q-17.715 35.143-17.715 94.572 0 67.714 38.857 113.143-7.715 23.429-7.715 48.572 0 33.143 14.572 62.286 30.857 0 54.285-11.286t54-35.286q42 10 88.286 10 42.286 0 80-9.143 30 23.429 53.428 34.572t54 11.143q14.572-29.143 14.572-62.286 0-24.857-7.714-48 38.857-45.714 38.857-113.714z" horiz-adv-x="476" />
<glyph unicode="&#xf13b;" d="M322.857 304.857l4.572 50h-252.571l13.428-152.571h174.857l-6.286-65.143-56.286-15.143-56 15.143-3.714 40h-50l6.285-79.428 103.428-28.572h1.143v0.286l102.571 28.286 14.286 155.428h-184l-4.286 51.715h192.571zM0 438.857h402.286l-36.572-410.857-165.143-46.286-164 46.286z" horiz-adv-x="403" />
<glyph unicode="&#xf13c;" d="M78.572 438.857h430l-76-380.857-229.714-76.286-199.429 76.286 20.285 101.714h84.857l-8.285-42 120.572-46 138.857 46 19.428 96.857h-345.143l16.572 84.857h345.428l10.857 54.572h-345.143z" />
<glyph unicode="&#xf167;" d="M277.428 120v-60.286q0-19.143-11.143-19.143-6.572 0-12.857 6.286v86q6.285 6.286 12.857 6.286 11.143 0 11.143-19.143zM374 119.714v-13.143h-25.714v13.143q0 19.428 12.857 19.428t12.857-19.428zM98 182h30.572v26.857h-89.143v-26.857h30v-162.572h28.572v162.572zM180.286 19.429h25.428v141.143h-25.428v-108q-8.572-12-16.286-12-5.143 0-6 6-0.286 0.857-0.286 10v104h-25.428v-111.714q0-14 2.286-20.857 3.429-10.572 16.572-10.572 13.714 0 29.143 17.428v-15.428zM302.857 61.714v56.286q0 20.857-2.572 28.286-4.857 16-20.286 16-14.286 0-26.572-15.428v62h-25.428v-189.429h25.428v13.714q12.857-15.714 26.572-15.714 15.428 0 20.286 15.714 2.572 7.714 2.572 28.572zM399.428 64.572v3.714h-26q0-14.572-0.572-17.428-2-10.286-11.428-10.286-13.143 0-13.143 19.714v24.857h51.143v29.428q0 22.572-7.714 33.143-11.143 14.572-30.286 14.572-19.428 0-30.572-14.572-8-10.572-8-33.143v-49.428q0-22.572 8.286-33.143 11.143-14.572 30.857-14.572 20.572 0 30.857 15.143 5.143 7.714 6 15.428 0.572 2.572 0.572 16.572zM225.714 325.429v60q0 19.714-12.286 19.714t-12.286-19.714v-60q0-20 12.286-20t12.286 20zM431.143 110.857q0-66.857-7.428-100-4-16.857-16.572-28.286t-29.143-13.143q-52.572-6-158.571-6t-158.571 6q-16.572 1.714-29.285 13.143t-16.428 28.286q-7.428 32-7.428 100 0 66.857 7.428 100 4 16.857 16.572 28.286t29.428 13.428q52.285 5.714 158.286 5.714t158.571-5.714q16.572-2 29.286-13.428t16.428-28.286q7.428-32 7.428-100zM146 475.429h29.143l-34.571-114v-77.428h-28.572v77.428q-4 21.143-17.428 60.572-10.572 29.428-18.572 53.428h30.285l20.285-75.143zM251.714 380.286v-50q0-23.143-8-33.714-10.572-14.572-30.286-14.572-19.143 0-30 14.572-8 10.857-8 33.714v50q0 22.857 8 33.428 10.857 14.572 30 14.572 19.714 0 30.286-14.572 8-10.572 8-33.428zM347.428 426.572v-142.571h-26v15.714q-15.143-17.714-29.428-17.714-13.143 0-16.857 10.572-2.286 6.857-2.286 21.428v112.572h26v-104.857q0-9.428 0.286-10 0.857-6.286 6-6.286 7.714 0 16.286 12.286v108.857h26z" />
<glyph unicode="&#xf16a;" d="M365.714 219.429q0 10.572-8.572 15.428l-146.286 91.428q-8.857 5.714-18.572 0.571-9.428-5.143-9.428-16v-182.857q0-10.857 9.428-16 4.572-2.286 8.857-2.286 5.714 0 9.714 2.857l146.285 91.428q8.572 4.857 8.572 15.428zM512 219.429q0-27.428-0.286-42.857t-2.428-39-6.428-42.143q-4.572-20.857-19.714-35.143t-35.428-16.572q-63.428-7.143-191.714-7.143t-191.714 7.143q-20.285 2.286-35.572 16.572t-19.857 35.143q-4 18.572-6.143 42.143t-2.429 39-0.285 42.857 0.285 42.857 2.429 39 6.428 42.143q4.572 20.857 19.715 35.143t35.428 16.572q63.428 7.143 191.714 7.143t191.714-7.143q20.286-2.286 35.572-16.572t19.857-35.143q4-18.571 6.143-42.143t2.428-39 0.286-42.857z" />
<glyph unicode="&#xf16b;" d="M114.857 273.429l141.143-87.143-97.714-81.428-140 91.143zM396.572 114.857v-30.857l-140-83.714v-0.286l-0.286 0.286-0.286-0.286v0.286l-139.714 83.714v30.857l42-27.428 97.714 81.143v0.572l0.286-0.286 0.286 0.286v-0.572l98-81.143zM158.286 441.714l97.714-81.428-141.143-86.857-96.572 77.143zM397.143 273.429l96.572-77.428-139.714-91.143-98 81.428zM354 441.714l139.714-91.143-96.572-77.143-141.143 86.857z" />
<glyph unicode="&#xf16c;" d="M265.143 75.143v-43.143l-202-0.286v43.143zM334 174v-200.286l-0.286-10v-0.285l-333.714 0.285v210.286h34.572v-176.572h265.143v176.572h34.286zM68.857 148.857l201.143-18.572-3.714-42.857-201.429 18.572zM88.285 239.143l195.143-52.286-11.143-41.714-195.143 52.286zM134.857 338.857l174-102.857-22-37.143-174 102.857zM237.714 433.429l113.714-167.143-35.428-24.285-114 166.857zM367.143 475.429l34.572-199.143-42.572-7.428-34.572 199.143z" horiz-adv-x="403" />
<glyph unicode="&#xf16d;" d="M389.143 68v185.143h-38.572q5.714-18 5.714-37.428 0-36-18.286-66.428t-49.714-48.143-68.572-17.714q-56.286 0-96.285 38.714t-40 93.572q0 19.428 5.715 37.428h-40.285v-185.143q0-7.428 5-12.428t12.428-5h305.428q7.143 0 12.286 5t5.143 12.428zM308 220.286q0 35.429-25.857 60.429t-62.428 25q-36.286 0-62.143-25t-25.857-60.428 25.857-60.428 62.143-25q36.572 0 62.428 25t25.857 60.428zM389.143 323.143v47.143q0 8-5.714 13.857t-14 5.857h-49.714q-8.286 0-14-5.857t-5.714-13.857v-47.143q0-8.286 5.714-14t14-5.714h49.714q8.286 0 14 5.714t5.714 14zM438.857 382.572v-326.286q0-23.143-16.572-39.714t-39.714-16.572h-326.286q-23.143 0-39.715 16.572t-16.572 39.714v326.286q0 23.143 16.572 39.714t39.715 16.572h326.286q23.143 0 39.714-16.572t16.572-39.714z" />
<glyph unicode="&#xf16e;" d="M356.572 438.857q34 0 58.143-24.143t24.143-58.143v-274.286q0-34-24.143-58.143t-58.143-24.143h-274.286q-34 0-58.143 24.143t-24.143 58.143v274.286q0 34 24.143 58.143t58.143 24.143h274.286zM199.429 219.429q0 25.143-17.715 42.857t-42.857 17.715-42.857-17.714-17.715-42.857 17.715-42.857 42.857-17.714 42.857 17.714 17.714 42.857zM360.572 219.429q0 25.143-17.714 42.857t-42.857 17.715-42.857-17.714-17.714-42.857 17.714-42.857 42.857-17.714 42.857 17.714 17.714 42.857z" />
<glyph unicode="&#xf170;" d="M219.429 297.714l57.429-87.428h-114.857zM323.714 146.286h26.857l-131.143 197.428-131.143-197.428h26.857l29.715 45.714h149.143zM438.857 219.429q0-59.714-29.428-110.143t-79.857-79.857-110.143-29.428-110.143 29.428-79.857 79.857-29.428 110.143 29.428 110.143 79.857 79.857 110.143 29.428 110.143-29.428 79.857-79.857 29.428-110.143z" />
<glyph unicode="&#xf171;" d="M232.857 230q2.286-18-14.429-28.857t-31.857-1.714q-11.143 4.857-15.286 16.572t-0.143 23.428 14.857 16.572q10.286 5.143 20.715 3.428t18.286-10.143 7.857-19.286zM264.572 236q-4 30.572-32.286 46.857t-56.286 3.714q-18-8-28.714-25.286t-9.857-37q1.143-26 22.143-44.286t47.286-16q26 2.286 43.428 24t14.286 48zM332.857 390.857q-5.714 7.714-16 12.714t-16.572 6.286-20.286 3.572q-83.143 13.428-161.714-0.572-12.285-2-18.857-3.428t-15.715-6.286-14.285-12.286q8.572-8 21.715-13t21-6.285 25-3.286q65.143-8.286 128-0.286 18 2.286 25.572 3.428t20.714 6.143 21.428 13.285zM349.143 95.143q-2.286-7.428-4.428-21.857t-4-24-8.143-20-16.572-16.143q-24.572-13.714-54.143-20.428t-57.714-6.286-57.572 5.286q-13.143 2.286-23.285 5.143t-21.857 7.714-20.857 12.428-14.857 17.572q-7.143 27.428-16.285 83.428l1.715 4.572 5.143 2.572q63.715-42.286 144.714-42.286t145 42.286q6-1.714 6.857-6.572t-1.428-12.857-2.286-10.572zM400.857 369.714q-7.428-47.714-31.714-187.143-1.428-8.572-7.714-16t-12.428-11.428-15.572-8.857q-72-36-174.286-25.143-70.857 7.714-112.572 39.714-4.285 3.428-7.285 7.572t-4.857 10-2.572 9.714-1.715 11.286-1.572 10q-2.572 14.286-7.572 42.857t-8 46.143-6.715 42.143-6.285 45.143q0.857 7.428 5 13.857t9 10.715 12.857 8.571 13.143 6.429 13.715 5.285q35.715 13.143 89.428 18.286 108.286 10.572 193.143-14.286 44.286-13.143 61.428-34.857 4.572-5.715 4.714-14.572t-1.572-15.428z" horiz-adv-x="403" />
<glyph unicode="&#xf173;" d="M111.428 438.857h62.572v-110.857h104v-68.857h-104v-112.571q0-38.857 4-49.143 3.714-10.572 14.857-17.143 14.286-8.857 33.429-8.857 33.428 0 66.286 21.714v-69.143q-29.143-13.714-50.857-18.572-22-5.428-49.429-5.428-30 0-53.143 7.714-22.285 7.143-39.428 21.428-16.572 14.572-22.572 30-6.285 15.428-6.285 46v154h-48.572v62q26 8.572 44.285 24 18.285 15.714 29.428 37.714t15.428 56z" horiz-adv-x="293" />
<glyph unicode="&#xf179;" d="M398 128.286q-11.143-35.714-35.143-71.428-36.857-56-73.428-56-14 0-40 9.143-24.572 9.143-43.143 9.143-17.429 0-40.571-9.428-23.143-9.714-37.715-9.714-43.428 0-86 74-42 74.572-42 143.714 0 65.143 32.285 106.857 32 41.143 81.143 41.143 20.572 0 50.572-8.572 29.714-8.572 39.428-8.572 12.857 0 40.857 9.715 29.143 9.714 49.429 9.714 34 0 60.857-18.572 14.857-10.286 29.714-28.572-22.572-19.143-32.572-33.714-18.572-26.857-18.572-59.143 0-35.428 19.714-63.714t45.143-36zM290.572 463.429q0-17.428-8.286-38.857-8.572-21.428-26.572-39.428-15.428-15.428-30.857-20.572-10.571-3.143-29.715-4.857 0.857 42.571 22.286 73.428 21.143 30.572 71.428 42.286 0.286-0.857 0.714-3.143t0.714-3.143q0-1.143 0.143-2.857t0.143-2.857z" horiz-adv-x="403" />
<glyph unicode="&#xf17a;" d="M194.857 188v-186l-194.857 26.857v159.143h194.857zM194.857 400.286v-188.285h-194.857v161.428zM475.428 188v-224.572l-259.143 35.714v188.857h259.143zM475.428 438.857v-226.857h-259.143v191.143z" horiz-adv-x="476" />
<glyph unicode="&#xf17b;" d="M140.857 337.429q4.571 0 7.857 3.286t3.286 7.857-3.286 7.857-7.857 3.285-7.714-3.285-3.143-7.857 3.143-7.857 7.714-3.286zM261.428 337.429q4.572 0 7.714 3.286t3.143 7.857-3.143 7.857-7.714 3.285-7.857-3.285-3.286-7.857 3.286-7.857 7.857-3.286zM29.428 284.857q12 0 20.572-8.571t8.572-20.572v-122.857q0-12.286-8.428-20.857t-20.715-8.572-20.857 8.572-8.572 20.857v122.857q0 12 8.572 20.572t20.857 8.572zM332.286 279.429v-190.286q0-13.143-9.143-22.286t-22-9.143h-21.428v-64.857q0-12.286-8.572-20.857t-20.857-8.572-20.857 8.572-8.572 20.857v64.857h-39.428v-64.857q0-12.286-8.572-20.857t-20.857-8.572q-12 0-20.571 8.572t-8.572 20.857l-0.285 64.857h-21.143q-13.143 0-22.285 9.143t-9.143 22.286v190.286h262.286zM266 395.143q30.572-15.714 48.857-43.857t18.286-61.571h-264.286q0 33.428 18.285 61.571t49.143 43.857l-20.285 37.428q-2 3.714 1.428 5.714 3.715 1.715 5.715-1.714l20.572-37.714q27.143 12 57.429 12t57.428-12l20.572 37.714q2 3.429 5.714 1.714 3.428-2 1.428-5.714zM402.286 255.714v-122.857q0-12.286-8.572-20.857t-20.857-8.572q-12 0-20.572 8.572t-8.572 20.857v122.857q0 12.286 8.572 20.715t20.572 8.428q12.286 0 20.857-8.428t8.572-20.714z" horiz-adv-x="403" />
<glyph unicode="&#xf17d;" d="M292.572 46.857q-12 68.857-40 142.286h-0.571l-0.571-0.286q-4.572-1.714-12.286-4.714t-28.857-14-39.143-23.428-37.428-32.714-29.428-42.286l-4.285 3.143q52.572-42.857 119.428-42.857 37.714 0 73.143 14.857zM239.714 220.286q-6 14-15.143 31.715-88.857-26.572-192.286-26.572-0.285-2-0.285-6 0-35.428 12.572-67.572t35.428-57.572q14.285 25.428 35.285 47.572t40.715 35.572 37.286 23.143 28.428 13.714l10.572 3.714q1.143 0.286 3.714 1t3.714 1.286zM209.143 280.857q-34.285 60.857-69.715 108-39.428-18.572-66.857-53.143t-36.572-77.714q86.285 0 173.143 22.857zM404.572 189.714q-60 17.143-116.857 8.286 24.857-68.286 36.572-134 31.714 21.428 52.857 54.143t27.428 71.572zM174.571 401.429q-0.286 0-0.571-0.286 0.286 0.286 0.571 0.286zM343.143 360q-52.857 46.857-123.714 46.857-21.714 0-44.286-5.428 37.428-48.572 70.286-109.143 19.714 7.429 37.143 17.286t27.572 17.572 18.714 16.286 10.714 11.572zM406.857 221.429q-0.857 66.286-42.572 117.143l-0.286-0.286q-2.572-3.428-5.428-7t-12.428-12.714-20.286-17.285-28.572-18.572-37.572-18.428q7.143-15.143 12.572-27.143 0.572-1.714 1.857-5t2.143-4.714q10.286 1.429 21.286 2t21 0.572 19.714-0.429 18.286-1.143 16.143-1.572 13.714-1.857 10.428-1.714 7.143-1.286zM438.857 219.429q0-59.714-29.428-110.143t-79.857-79.857-110.143-29.428-110.143 29.428-79.857 79.857-29.428 110.143 29.428 110.143 79.857 79.857 110.143 29.428 110.143-29.428 79.857-79.857 29.428-110.143z" />
<glyph unicode="&#xf17e;" d="M335.143 171.714q0 14.286-5.572 26.143t-13.857 19.572-20.857 14-23.572 9.714-25 6.572l-29.714 6.857q-8.572 2-12.572 3t-10 3.286-8.572 4.572-4.714 6-2.143 8.572q0 22 41.143 22 12.286 0 22-3.429t15.428-8.143 10.857-9.572 11.428-8.286 13.714-3.429q13.428 0 21.572 9.143t8.143 22q0 15.714-16 28.428t-40.572 19.285-52 6.572q-19.428 0-37.714-4.428t-34.143-13.428-25.428-24.857-9.572-36.714q0-17.428 5.428-30.428t16-21.572 22.857-13.857 29.429-9.286l41.714-10.286q25.714-6.286 32-10.286 9.143-5.714 9.143-17.143 0-11.143-11.428-18.428t-30-7.286q-14.572 0-26.143 4.572t-18.571 11-13 12.857-13.143 11-15.429 4.572q-14.285 0-21.572-8.572t-7.285-21.428q0-26.286 34.857-45t83.143-18.714q20.857 0 40 5.286t35 15.286 25.286 26.714 9.428 37.572zM438.857 109.714q0-45.428-32.143-77.572t-77.572-32.143q-37.143 0-66.857 22.857-22-4.572-42.857-4.572-40.857 0-78.143 15.857t-64.285 42.857-42.857 64.286-15.857 78.143q0 20.857 4.572 42.857-22.857 29.715-22.857 66.857 0 45.428 32.143 77.571t77.572 32.143q37.143 0 66.857-22.857 22 4.571 42.857 4.571 40.857 0 78.143-15.857t64.286-42.857 42.857-64.285 15.857-78.143q0-20.857-4.572-42.857 22.857-29.714 22.857-66.857z" />
<glyph unicode="&#xf194;" d="M358.286 293.429q4.572 24.286-6 37.714-14.857 18.571-53.428 12.857-4.857-0.857-11.714-3.571t-16.428-8.714-18.428-13.857-17-20-12.714-26.143q22.857 2 32.428-4.572t7.572-28.286q-1.428-14.857-14.857-40.857-12.286-22.286-20.285-28.286-12.572-9.143-24.857 4-6.571 6.857-10.714 18.428t-5.429 20.857-2.857 24-2.429 20.428q-6.572 36.857-9.714 46.857-3.429 10.572-10.143 19.715t-14.429 11.428q-16.286 4.572-36.285-7.143-15.428-9.143-39-30.285t-35-29.143v-2q4.572-2.286 7.285-7.428t6.143-5.714q6-0.857 15.572 2.428t16.572 3 11.857-8.571q3.143-5.143 5.285-11t4.285-13.714 3.572-11.572q4.857-13.143 15.143-53.428 10.285-41.714 16.285-56.286 12-28.286 29.428-35.714 12.286-3.428 24.286-0.428t21.714 9q37.428 22 71.428 67.714 29.714 39.714 49.286 83.572t23.572 64.714zM438.857 356.572v-274.286q0-34-24.143-58.143t-58.143-24.143h-274.286q-34 0-58.143 24.143t-24.143 58.143v274.286q0 34 24.143 58.143t58.143 24.143h274.286q34 0 58.143-24.143t24.143-58.143z" />
<glyph unicode="&#x1f354;" d="M320 332.606h-267.248q-15.515 14.74-15.515 31.031 0 20.945 22.497 37.042t55.855 23.661 70.594 7.564 70.594-7.564 55.854-23.661 22.497-37.042q0-17.066-15.127-31.031zM114.424 366.351q6.982 7.37 9.309 15.127t-1.552 12.024-12.024 1.94-15.127-9.697q-7.37-7.37-9.503-15.127t1.746-12.024q4.266-3.879 12.024-1.551t15.127 9.309zM197.43 370.618q3.879 4.267 1.745 12.024t-9.503 15.127-15.321 9.503-11.831-1.745q-3.879-4.267-1.745-12.024t9.503-15.127 15.127-9.503 12.024 1.745zM236.994 358.594q4.267-3.879 12.024-1.551t15.128 9.309q7.37 7.37 9.503 15.127t-1.745 12.024q-4.267 3.879-12.024 1.745t-15.127-9.503-9.503-15.127 1.745-12.024zM62.060 307.782h248.243q15.515 0 26.376-10.861t10.861-26.376-10.861-26.376-26.376-10.861h-248.243q-15.515 0-26.376 10.861t-10.861 26.376 10.861 26.376 26.376 10.861zM366.933 208.485q5.43-5.43 5.624-12.994t-4.849-12.994q-22.109-22.497-39.563-29.091 0-0.388 0.194-1.163t0.194-1.163q0-22.497-33.163-32.194t-109.188-9.697-109.576 9.697-33.551 32.194q0 0.776 0.388 1.163-7.758 2.715-14.934 7.757t-10.666 8.728-13.188 13.769q-5.043 5.43-4.848 12.994t5.624 12.994q7.37 6.982 17.454 4.267 5.43-1.163 8.921-4.654 19.394-20.17 37.43-23.079t46.352 10.279q31.806 14.74 62.837 14.351 30.642 0 64.388-13.964 32.97-13.576 55.66-10.666t42.085 23.079q3.491 3.491 8.534 4.654 10.473 2.715 17.843-4.267z" horiz-adv-x="373" />
<glyph unicode="&#x1f355;" d="M186.182 456.728q50.424 0 93.285-25.018t67.879-67.879 25.018-93.285-24.824-93.285-67.879-67.879-93.479-25.018-93.479 25.018-67.879 67.879-24.824 93.285 25.018 93.285 67.879 67.879 93.285 25.018zM186.182 120.437q62.060 0 106.085 44.024t44.024 106.085q0 62.449-44.024 106.473t-106.085 44.024-106.085-44.024-44.024-106.473q0-62.060 44.024-106.085t106.085-44.024zM228.072 288.388q-7.369-3.491-14.739-0.388t-10.085 10.472l-22.885-26.763q-3.491-5.042-7.757 0l-34.909 39.564q-3.491 4.654 1.163 8.145l29.091 19.782q-6.982 3.491-8.921 11.83t2.715 15.709q5.818 9.309 17.454 13.576t26.958 0 27.346-17.843q17.454-22.885 14.157-44.8t-19.588-29.285zM145.066 220.897q-6.206-10.085-18.618-11.637t-23.273 6.206q-10.861 7.37-14.352 20.169t2.715 22.885 18.618 11.637 23.272-6.206 14.351-20.363-2.715-22.691zM200.534 171.248q-1.163 0-2.715 0.776-3.879 1.163-5.042 4.654-8.534 17.842-1.94 35.879t24.048 26.958q10.085 5.042 22.109 5.042 13.576 0 25.212-6.594t17.842-18.231q1.94-3.491 0.776-6.594-1.163-3.879-4.654-5.43l-71.37-35.297q-1.552-1.163-4.267-1.163z" horiz-adv-x="373" />
<glyph unicode="&#x1f35c;" d="M244.363 349.285q-0.388-0.388-3.297 0.97t-7.564 3.879-8.921 5.624q-14.739 10.861-13.188 21.721 0.388 5.043 12.412 23.661 1.552 2.327 4.655 7.37t4.46 6.982 3.491 5.818 3.103 6.012 1.745 4.848 0.776 5.043q0.776 9.309-2.327 15.515 1.552 0 9.503-4.072t16.291-12.218 7.176-16.291q-0.776-5.818-12.412-23.661-17.843-27.928-18.618-36.072 0-3.879 0.388-5.818 0-4.654 2.327-9.309zM162.133 333.769q-3.879 0-14.351 5.043-25.988 12.024-23.66 28.703 0.776 6.594 16.291 27.928 1.552 2.715 5.042 7.563t5.042 7.176 4.072 6.206 3.879 6.206 2.715 5.43 2.133 5.43 0.776 4.655q0.776 12.024-3.491 18.618 2.327 0 11.249-3.685t18.424-12.024 7.952-18.037q-0.776-6.206-15.903-27.927-1.94-2.715-5.237-7.564t-4.849-7.176-4.072-6.206-3.879-6.4-2.909-5.43-2.133-5.43-0.582-4.849v-6.982q0.776-6.594 3.491-11.249zM371.976 193.358q-3.491-17.067-11.248-37.236-7.757-17.454-19.006-32t-16.291-19.006-8.146-6.4q-2.327-1.551-3.879-1.551-3.491-1.163-16.679-3.685t-44.994-5.818-65.552-3.297-65.552 3.297-44.994 5.818-16.679 3.685q-1.551 0-3.879 1.551-35.297 26.764-50.424 77.576-2.715 8.534-4.266 17.067-1.163 6.206 2.328 10.473 3.879 4.654 9.697 4.654h15.903q9.697 54.691 44.994 77.576 13.576 8.921 30.642 12.412-29.091-39.952-35.297-89.988h26.376q2.715 27.928 14.74 51.2t29.285 38.012 35.685 23.272 36.267 10.473q51.2 5.43 86.885-26.763 20.17-18.231 32.582-44.218t15.903-51.976h13.576q5.818 0 9.697-4.654 3.491-4.267 2.327-10.473zM233.115 208.485q-4.267 14.74-13.576 20.946-11.249 7.757-27.54 5.042-6.982-0.388-8.534 3.879-1.163 3.103 0.776 6.206 13.964 16.291 33.745 18.618 19.006 2.327 33.358-10.472 16.679-15.127 24.048-44.218h27.151q-7.757 40.339-33.745 64-22.109 19.782-53.528 17.067-17.066-1.94-31.224-10.279t-22.885-20.752-14.157-24.824-7.757-25.212h93.867z" horiz-adv-x="373" />
<glyph unicode="&#x1f426;" d="M354.909 350.448q4.267-0.776 5.043-5.43 0.776-4.267-3.879-6.206l-32.969-13.964q0.388-4.267 0.388-12.8 0-20.558-5.43-42.085t-17.067-42.86-28.315-38.788-41.309-29.479-53.333-15.127l12.024-22.109h39.564q7.757 0 13.188-5.43t5.43-13.188-5.43-13.188-13.188-5.43h-99.297q-7.757 0-13.188 5.43t-5.43 13.188 5.43 13.188 13.188 5.43h17.454l-12.412 22.885q-44.994 5.43-77.576 27.733t-47.321 57.988q-8.534 20.558-8.534 44.994 0 30.255 12.606 61.091t35.103 56.048q2.715 2.715 6.206 1.939 3.879-1.163 4.654-5.043 0-1.163 0.388-5.818t2.328-13.188 4.848-16.097 8.921-13.188 13.769-5.624q4.654 0 10.472 1.94 8.921 3.103 14.157 10.085t7.176 12.994 4.266 18.812q2.327 12.024 4.267 18.618t6.788 17.26 13.382 18.618 21.334 13.769q17.454 8.921 38.012 8.921 35.685 0 65.163-27.539t41.503-70.206zM251.733 357.043q0 11.636-8.339 19.976t-19.976 8.339-19.976-8.339-8.339-19.976 8.339-19.782 19.976-8.145 19.976 8.145 8.339 19.782z" horiz-adv-x="373" />
<glyph unicode="&#x1f43b;" d="M359.952 376.048q0-35.297-25.6-58.957 13.188-31.030 13.188-65.163 0-69.43-49.067-118.497t-118.497-49.067-118.497 49.067-49.066 118.497q0 34.521 13.188 65.163-25.6 24.437-25.6 58.957 0 33.358 23.66 57.018t57.018 23.661q22.109 0 40.534-10.861t29.285-29.091q17.066 2.715 29.479 2.715 12.8 0 29.867-2.715 10.861 18.231 29.285 29.091t40.145 10.861q33.358 0 57.018-23.661t23.661-57.018zM42.279 351.224q27.928 37.624 70.594 56.243-13.576 14.74-33.358 14.74-19.006 0-32.194-13.188t-13.188-31.806q0-13.963 8.145-25.988zM317.285 351.224q8.146 12.024 8.146 25.6 0 18.618-13.188 31.806t-31.806 13.188q-20.17 0-32.969-14.74 41.891-17.842 69.818-55.854zM179.976 132.072q39.176 0 66.715 25.988t27.54 62.837-27.54 62.837-66.715 25.988-67.103-25.988-27.927-62.837 27.927-62.837 67.103-25.988zM179.976 196.072q-18.231 0-30.837 12.8t-12.606 31.806q0 11.249 10.279 19.588t33.163 8.339q23.273 0 33.358-8.145t10.085-19.782q0-19.006-12.606-31.806t-30.837-12.8z" horiz-adv-x="373" />
<glyph unicode="&#x1f440;" d="M363.055 298.472q9.309-12.8 9.309-28.509t-9.309-28.897q-5.043-7.369-11.83-15.709t-25.018-26.182-37.236-31.031-46.934-23.661-55.855-10.473-55.855 10.666-46.546 23.272-37.624 31.224-24.824 25.988-12.412 15.903q-8.921 13.188-8.921 28.897t8.921 28.509q5.818 8.145 12.218 16.097t25.018 26.376 37.431 31.612 46.739 23.854 55.855 10.666 55.661-10.666 46.933-24.048 37.236-31.224 25.212-26.764 11.83-15.903zM186.182 192.969q32.194 0 54.885 22.691t22.691 54.885q0 6.594-1.163 12.412h-64v64q-5.818 1.163-12.412 1.163-32.194 0-54.885-22.691t-22.691-54.885 22.691-54.885 54.885-22.691z" horiz-adv-x="373" />
<glyph unicode="&#x1f44d;" d="M362.279 308.946q11.637-12.8 9.697-36.072l-1.94-26.764q-5.818-72.921-12.024-95.031-9.697-31.806-34.909-43.442-24.437-10.861-81.067-10.861-24.048 0-42.666 4.072t-25.6 7.563-18.618 10.861q-8.145 5.43-13.382 7.952t-15.903 4.654-25.018 2.134h-13.963v182.303q15.515 3.491 27.927 9.115t20.752 10.666 14.934 13.576 9.891 13.382 6.594 15.128 3.879 13.769 2.909 13.963q1.552 7.758 2.521 11.055t3.297 9.891 5.042 9.503 7.564 5.43 11.054 2.521q11.637-0.388 19.394-10.085 11.249-12.8 12.8-43.83t-3.103-70.206h96.969q22.497 0 32.969-11.249zM62.060 320.194v-223.418h-62.060v223.418h62.060z" horiz-adv-x="373" />
<glyph unicode="&#x1f44e;" d="M362.279 232.145q-10.473-11.249-32.969-11.249h-96.969q4.655-39.563 3.103-70.4t-12.8-44.024q-7.757-9.309-19.394-9.697-6.206 0-11.054 2.521t-7.564 5.43-5.042 9.503-3.297 9.891-2.521 11.055q-2.327 10.473-2.909 13.964t-3.879 13.769-6.594 15.127-9.891 13.382-14.934 13.576-20.751 10.666-27.927 9.115v182.303h13.963q20.945 0 31.612 3.491t22.691 11.249q11.637 7.369 18.618 10.861t25.6 7.563 42.666 4.072q66.715 0 90.764-16.679 21.334-14.352 29.091-53.915 3.491-20.169 8.146-79.127l1.94-26.376q1.94-24.048-9.697-36.072zM62.060 407.079v-223.418h-62.060v223.418h62.060z" horiz-adv-x="373" />
<glyph unicode="&#x1f4ac;" d="M354.909 367.903q5.043-31.806 5.043-67.491 0-35.297-5.043-66.715-3.103-20.558-22.691-37.624t-41.309-19.394q-42.666-4.267-84.169-4.654l-74.085-71.757q-3.491-3.491-8.534-3.491-1.939 0-5.043 0.776-7.37 3.103-7.37 11.637v63.612l-30.255 2.327q-21.334 2.327-41.115 19.976t-23.273 38.594q-4.654 32.582-4.654 66.327 0 34.909 4.654 67.879 3.491 20.945 23.273 38.594t41.115 19.976q54.303 5.43 104.727 5.43t104.728-5.43q21.334-2.327 41.115-19.976t22.885-38.594z" horiz-adv-x="373" />
<glyph unicode="&#x1f500;" d="M102.012 301.188q-15.903 26.376-17.843 29.091-8.921 12.412-20.945 17.454l-46.545 17.454q-16.679 6.206-16.679 22.497 0 6.982 6.4 13.188t13.77 6.206h62.837q36.849 0 59.733-35.685 0.388-0.388 0.776-1.163zM181.139 371.782q22.497 35.297 65.552 35.297h38.788v37.624q0 8.146 7.37 10.861 7.37 3.103 13.576-2.327 21.334-19.782 41.115-44.994t23.661-33.357q2.327-5.43 0-10.085-4.267-8.145-23.855-33.745t-40.921-44.994q-3.491-3.491-8.534-3.491-2.715 0-5.043 1.163-7.37 3.491-7.37 11.249v37.624h-28.703q-12.024 0-19.394-10.861l-94.642-152.048q-22.885-35.685-59.733-35.685h-62.837q-7.37 0-13.77 6.206t-6.4 13.188q0 15.903 16.679 22.497l46.545 17.067q12.8 5.818 20.945 17.842zM297.891 84.363q-2.715 0-5.043 1.163-7.37 2.715-7.37 10.861v37.624h-38.788q-43.831 0-65.552 35.297l-1.163 2.327q5.042 8.534 20.169 32.776t23.273 37.43q3.103-5.042 6.4-10.279t5.042-8.339 2.521-3.879q7.369-10.861 19.394-10.861h28.703v37.624q0 8.145 7.37 10.86 7.37 3.103 13.576-2.327 21.334-19.782 41.115-44.994t23.661-33.358q2.327-5.43 0-10.085-3.879-8.146-23.661-33.551t-41.115-45.188q-3.879-3.103-8.534-3.103z" horiz-adv-x="373" />
<glyph unicode="&#x1f511;" d="M352.969 183.272q16.291-16.679 16.291-39.757t-16.291-39.757q-16.679-16.679-39.757-16.679t-39.757 16.679l-0.388 0.388v54.691h-54.691l-33.745 33.745q-23.273-8.921-48.097-8.921-56.63 0-96.582 39.952t-39.952 96.582 39.952 96.582 96.582 39.952 96.582-39.952 39.952-96.582q0-25.6-8.921-48.097zM134.594 322.134q13.964 13.576 16.679 30.642t-7.369 27.151-27.151 7.563-31.031-16.485-16.485-31.030 7.564-27.151 27.151-7.369 30.642 16.679z" horiz-adv-x="373" />
</font>
</defs>
</svg>
